<?xml version="1.0" standalone="no"?>
<!DOCTYPE svg PUBLIC "-//W3C//DTD SVG 20010904//EN"
 "http://www.w3.org/TR/2001/REC-SVG-20010904/DTD/svg10.dtd">
<svg version="1.0" xmlns="http://www.w3.org/2000/svg"
 width="972.000000pt" height="972.000000pt" viewBox="0 0 972.000000 972.000000"
 preserveAspectRatio="xMidYMid meet">
<metadata>
Created by potrace 1.14, written by Peter Selinger 2001-2017
</metadata>
<g transform="translate(0.000000,972.000000) scale(0.100000,-0.100000)"
fill="#000000" stroke="none">
<path d="M5926 9704 c-74 -14 -121 -28 -370 -106 -87 -28 -164 -51 -170 -52
-6 -2 -45 -13 -86 -26 -41 -13 -78 -25 -82 -26 -5 -1 -9 -2 -10 -4 -2 -1 -10
-3 -18 -5 -8 -1 -98 -28 -200 -60 -102 -31 -192 -58 -200 -60 -16 -4 -134 -40
-265 -81 -44 -14 -87 -27 -95 -29 -8 -2 -62 -17 -120 -35 -267 -80 -336 -101
-350 -105 -70 -18 -202 -58 -233 -70 -20 -8 -38 -14 -40 -14 -1 1 -22 -5 -47
-12 -25 -7 -51 -14 -57 -16 -28 -7 -39 -10 -53 -16 -20 -7 -261 -78 -280 -82
-8 -2 -16 -4 -17 -5 -2 -2 -7 -4 -13 -5 -5 -1 -11 -3 -12 -5 -2 -1 -10 -3 -18
-5 -86 -17 -185 -69 -216 -113 -25 -37 -9 -86 39 -119 23 -15 44 -28 47 -28 3
-1 19 -8 35 -16 17 -9 100 -40 185 -68 85 -29 164 -56 175 -61 11 -5 130 -45
265 -90 135 -45 252 -84 260 -87 8 -4 20 -7 25 -9 6 -2 44 -15 85 -29 41 -15
82 -28 90 -30 8 -2 59 -19 113 -38 54 -19 100 -35 103 -35 8 -1 167 -53 189
-62 27 -12 337 -113 353 -116 8 -1 21 -6 30 -10 9 -4 20 -8 25 -9 4 -2 9 -4
12 -5 5 -3 6 -3 50 -15 17 -4 36 -12 43 -18 6 -5 12 -6 12 -2 0 4 7 2 15 -5 8
-7 15 -10 15 -6 0 3 33 -6 73 -20 80 -29 102 -36 102 -34 0 1 23 -7 51 -19 29
-11 55 -17 58 -14 3 4 6 2 6 -4 0 -5 6 -10 13 -10 13 0 137 -38 172 -53 28
-11 119 -44 128 -46 4 -1 8 -2 10 -4 1 -1 9 -3 17 -5 8 -2 32 -9 53 -15 80
-22 107 -28 107 -23 0 3 6 1 13 -4 13 -11 231 -10 287 1 35 7 92 23 120 33 8
4 19 5 24 4 4 -1 14 3 20 9 12 9 263 93 268 89 2 -1 13 3 26 10 13 7 31 14 40
16 16 3 290 92 487 157 50 17 95 31 100 33 6 1 23 7 39 14 15 6 39 12 52 13
13 1 24 5 24 9 0 4 15 10 33 14 17 4 34 9 37 10 3 1 12 4 20 8 19 7 183 61
190 62 10 1 716 236 735 245 11 4 119 41 240 80 121 40 229 76 240 81 11 5 56
20 100 34 108 34 142 51 182 91 38 38 43 77 14 111 -20 24 -135 81 -206 103
-22 7 -58 18 -80 26 -51 16 -185 55 -205 59 -8 2 -16 4 -17 5 -2 2 -6 3 -10 4
-5 1 -14 5 -20 9 -7 5 -13 6 -13 3 0 -3 -12 -1 -27 5 -16 6 -35 12 -43 14 -8
2 -46 13 -85 25 -38 11 -108 33 -155 46 -47 14 -92 28 -100 31 -8 4 -19 7 -25
8 -5 2 -37 11 -70 21 -33 10 -64 19 -70 20 -5 1 -48 15 -95 29 -75 24 -120 37
-170 50 -8 2 -16 4 -17 5 -2 2 -6 3 -10 4 -5 1 -14 5 -20 9 -7 5 -13 6 -13 3
0 -3 -17 0 -37 8 -59 21 -122 39 -138 39 -8 0 -15 4 -15 9 0 4 -3 7 -7 6 -9
-2 -89 19 -113 29 -8 4 -19 8 -25 9 -5 1 -13 3 -17 4 -5 1 -11 3 -15 5 -5 1
-15 4 -23 8 -8 3 -28 9 -45 13 -43 10 -39 9 -155 44 -58 17 -112 34 -120 37
-8 4 -44 15 -80 25 -77 22 -73 21 -130 38 -25 8 -47 14 -50 15 -29 7 -129 38
-145 44 -16 7 -92 29 -125 37 -3 0 -12 3 -20 6 -37 13 -127 39 -145 43 -11 2
-42 9 -70 15 -72 18 -287 20 -369 4z"/>
<path d="M8908 7974 c-4 -3 -14 -7 -25 -9 -10 -2 -19 -4 -20 -5 -2 -2 -6 -3
-10 -4 -5 -1 -45 -12 -91 -25 -58 -17 -86 -30 -94 -45 -8 -14 -11 -165 -11
-486 0 -346 -3 -476 -12 -507 -7 -23 -10 -44 -7 -47 3 -4 -1 -6 -8 -6 -7 0
-10 -3 -7 -7 4 -3 3 -11 -2 -17 -8 -10 -109 -248 -115 -271 -3 -10 -20 -54
-33 -85 -3 -8 -7 -18 -8 -22 -2 -5 -4 -10 -5 -13 -1 -3 -3 -8 -4 -12 -1 -5 -8
-26 -16 -48 -35 -103 -5 -266 63 -348 12 -14 29 -35 37 -47 29 -41 134 -116
190 -135 3 -1 14 -6 25 -11 20 -9 103 -11 140 -3 69 15 222 147 268 232 15 26
24 47 22 47 -3 0 1 12 8 28 13 26 16 161 5 222 -8 40 -49 172 -66 210 -9 19
-17 40 -18 46 -1 6 -35 78 -75 160 l-73 149 -1 519 c-1 498 -1 519 -20 532
-21 15 -29 17 -37 8z"/>
<path d="M4233 7603 c-22 -11 -36 -28 -44 -52 -13 -39 -18 -1051 -5 -1123 24
-145 156 -264 459 -415 48 -23 90 -43 93 -43 3 0 20 -6 37 -14 30 -14 243 -85
270 -90 6 -2 30 -6 52 -11 22 -4 45 -10 50 -14 6 -3 15 -6 21 -7 7 -1 45 -10
85 -19 41 -9 83 -19 94 -21 11 -2 30 -6 42 -8 22 -5 107 -18 133 -21 8 -1 35
-5 60 -9 231 -34 626 -39 895 -11 76 8 140 15 165 20 263 45 296 51 309 59 4
3 23 7 42 10 19 2 61 12 94 22 33 10 65 19 71 20 20 4 258 86 294 101 98 43
265 127 268 134 2 5 8 9 14 9 14 0 136 97 176 139 18 20 45 56 59 80 25 40 27
54 28 148 0 57 4 103 8 103 4 0 3 8 -2 19 -6 10 -7 21 -4 25 3 3 7 200 8 436
1 395 0 434 -16 471 -32 70 -99 82 -223 38 -33 -11 -65 -22 -71 -23 -5 -1 -35
-11 -65 -21 -30 -11 -57 -20 -60 -20 -3 -1 -12 -4 -20 -8 -8 -3 -87 -29 -175
-58 -88 -28 -219 -71 -292 -96 -72 -24 -140 -46 -150 -48 -10 -2 -34 -9 -53
-16 -19 -7 -42 -14 -50 -17 -8 -3 -17 -6 -20 -7 -3 -1 -12 -4 -20 -8 -14 -5
-149 -50 -160 -52 -3 -1 -12 -4 -20 -8 -15 -6 -91 -30 -100 -32 -3 -1 -43 -13
-90 -28 -47 -14 -101 -29 -120 -32 -19 -3 -44 -8 -54 -12 -11 -3 -71 -6 -134
-8 -113 -2 -270 19 -337 45 -16 6 -32 12 -35 12 -8 1 -12 2 -240 79 -118 39
-219 73 -225 74 -5 1 -17 5 -25 8 -19 8 -192 68 -205 71 -5 2 -17 6 -25 9 -8
3 -60 19 -115 37 -55 17 -109 35 -120 40 -11 5 -40 15 -65 21 -25 7 -49 16
-54 21 -6 4 -20 8 -31 8 -12 0 -25 3 -29 8 -4 4 -11 7 -14 8 -4 0 -14 3 -22 7
-14 5 -119 40 -130 42 -3 1 -12 4 -20 8 -31 13 -124 37 -139 36 -9 0 -31 -8
-48 -16z"/>
<path d="M2927 5054 c-1 -1 -38 -4 -81 -8 -44 -4 -82 -9 -85 -11 -4 -2 -27 -6
-51 -10 -62 -9 -146 -30 -198 -49 -23 -8 -46 -16 -50 -17 -32 -7 -164 -62
-222 -92 -130 -69 -277 -167 -339 -225 -20 -19 -215 -200 -271 -252 -19 -18
-91 -85 -160 -150 -69 -65 -141 -133 -160 -150 -33 -31 -223 -209 -335 -315
-29 -27 -105 -99 -170 -160 -377 -351 -432 -408 -498 -508 -98 -147 -151 -274
-187 -449 -18 -88 -18 -145 -17 -1153 l2 -1060 24 -60 c92 -230 265 -363 498
-382 128 -10 278 33 376 109 42 32 69 58 337 317 79 78 148 141 152 141 5 0 8
6 8 14 0 8 4 16 10 18 8 3 185 172 540 518 59 58 219 213 355 345 137 132 276
267 310 300 83 81 128 108 197 119 18 3 944 6 2058 7 l2025 1 75 25 c41 14 77
29 78 34 2 5 12 9 23 9 10 0 19 3 19 8 0 4 16 18 35 31 19 13 43 31 54 40 11
9 43 34 72 56 28 22 66 51 83 66 17 14 117 92 221 174 105 82 192 153 193 157
2 5 8 8 14 8 6 0 18 8 27 18 9 10 32 29 51 42 19 13 40 29 46 35 6 5 23 19 38
30 15 11 36 27 46 35 17 15 32 26 154 123 34 26 68 53 76 60 8 7 35 28 60 47
25 19 47 37 50 40 3 3 23 19 45 35 22 16 49 37 60 46 11 10 58 47 105 83 47
36 92 71 100 79 8 7 44 35 80 62 36 27 67 52 70 55 3 3 37 30 75 60 39 30 72
57 75 60 3 3 34 27 70 55 36 27 70 53 75 58 6 4 74 59 153 121 78 63 160 136
181 163 42 52 81 131 100 200 13 48 17 170 7 223 -9 44 -57 164 -68 168 -4 2
-8 8 -8 13 0 12 -27 45 -83 101 -47 47 -173 118 -208 118 -10 0 -20 4 -23 8
-3 5 -24 10 -48 11 -24 2 -59 4 -78 5 -63 4 -250 -46 -250 -66 0 -4 -5 -8 -11
-8 -9 0 -157 -105 -169 -121 -3 -3 -70 -57 -150 -119 -80 -62 -161 -126 -180
-142 -19 -16 -39 -32 -45 -36 -51 -37 -202 -158 -207 -166 -4 -6 -8 -8 -8 -3
0 4 -8 -1 -18 -10 -10 -10 -33 -29 -51 -43 -19 -14 -41 -32 -51 -40 -10 -8
-32 -26 -50 -40 -29 -22 -66 -51 -133 -106 -9 -8 -21 -14 -26 -14 -5 0 -11 -4
-13 -9 -1 -5 -95 -81 -208 -170 -139 -109 -223 -168 -260 -183 l-55 -21 -1730
-2 c-951 0 -1734 1 -1740 4 -5 3 -21 7 -34 9 -79 11 -180 94 -218 181 -72 161
1 355 163 432 l49 24 1045 2 c575 1 1062 4 1084 7 64 9 155 38 167 52 6 8 18
14 25 14 40 0 165 133 207 221 66 137 74 259 27 399 -33 99 -96 186 -177 247
-21 15 -40 31 -43 34 -6 7 -132 58 -164 66 -18 5 -2933 12 -2939 7z"/>
</g>
</svg>
